HIERARCHY
ROOT Hips
{
  OFFSET 0 0 0
  CHANNELS 6 Xposition Yposition Zposition Zrotation Yrotation Xrotation
  JOINT LeftThigh
  {
    OFFSET 8.409438 0 -5.917753
    CHANNELS 3 Zrotation Yrotation Xrotation
    JOINT LeftLeg
    {
      OFFSET 0 0 -42.358652
      CHANNELS 3 Zrotation Yrotation Xrotation
      JOINT LeftFoot
      {
        OFFSET 0 0 -39.357303
        CHANNELS 3 Zrotation Yrotation Xrotation
      }
    }
  }
  JOINT RightThigh
  {
    OFFSET -8.409438 0 -5.917753
    CHANNELS 3 Zrotation Yrotation Xrotation
    JOINT RightLeg
    {
      OFFSET 0 0 -42.358652
      CHANNELS 3 Zrotation Yrotation Xrotation
      JOINT RightFoot
      {
        OFFSET 0 0 -39.357303
        CHANNELS 3 Zrotation Yrotation Xrotation
      }
    }
  }
  JOINT SpineLow
  {
    OFFSET 0 0 4.719101
    CHANNELS 3 Zrotation Yrotation Xrotation
    JOINT SpineMid
    {
      OFFSET 0 0 12.899191
      CHANNELS 3 Zrotation Yrotation Xrotation
      JOINT Chest
      {
        OFFSET 0 0 12.899191
        CHANNELS 3 Zrotation Yrotation Xrotation
        JOINT LeftShoulder
        {
          OFFSET 7.550562 1.41573 9.438202
          CHANNELS 3 Zrotation Yrotation Xrotation
          JOINT LeftArm
          {
            OFFSET 9.155056 0 4.247191
            CHANNELS 3 Zrotation Yrotation Xrotation
            JOINT LeftForearm
            {
              OFFSET 0 0 25.771955
              CHANNELS 3 Zrotation Yrotation Xrotation
              JOINT LeftHand
              {
                OFFSET 0 0 25.197169
                CHANNELS 3 Zrotation Yrotation Xrotation
              }
            }
          }
        }
        JOINT RightShoulder
        {
          OFFSET -7.550562 1.41573 9.438202
          CHANNELS 3 Zrotation Yrotation Xrotation
          JOINT RightArm
          {
            OFFSET -9.155056 0 4.247191
            CHANNELS 3 Zrotation Yrotation Xrotation
            JOINT RightForearm
            {
              OFFSET 0 0 -25.771955
              CHANNELS 3 Zrotation Yrotation Xrotation
              JOINT RightHand
              {
                OFFSET 0 0 -25.197169
                CHANNELS 3 Zrotation Yrotation Xrotation
              }
            }
          }
        }
        JOINT Neck
        {
          OFFSET 0 0 15.101124
          CHANNELS 3 Zrotation Yrotation Xrotation
          JOINT Head
          {
            OFFSET 0 0 11.325843
            CHANNELS 3 Zrotation Yrotation Xrotation
            End Site
            {
              OFFSET 0 0 14.157303
            }
          }
        }
      }
    }
  }
}
MOTION
Frames: 7
Frame Time: 0.0
0.0  101.685394  0.0  0.687043  -10.940433  -103.703101  7.300428  -26.346446  -14.101215  4.966833  18.374761  44.451387  -5.008867  1.588968  2.091643  -5.700599  22.968605  20.922001  -8.671132  1.620387  6.365794  -5.437234  0.417733  -4.634377  -0.315051  0.307841  2.57382  -0.827346  0.873844  7.031507  -0.827346  0.873844  7.031507  -11.083661  20.528469  3.740061  -149.94707  71.50344  -97.026721  -33.640553  -26.268878  77.954486  78.599355  -14.645281  -20.08783  11.110413  -10.79326  18.68402  109.397201  37.909448  45.532037  -43.814066  15.447581  -96.021777  70.295068  9.110358  31.761653  5.911427  -1.314906  -3.701106  4.425605  -1.022137  -2.763295  
0.0  101.685394  0.0  0.73611  -10.555147  -103.593586  6.62255  -26.220012  -14.665059  4.975122  18.708336  45.171152  -5.385755  1.556262  1.7994  -5.743017  22.839383  20.985017  -9.023591  1.601733  6.222844  -5.486485  0.478776  -4.632905  -0.406265  0.287581  2.572337  -1.078528  0.828203  7.026503  -1.078528  0.828203  7.026503  -10.576771  20.731041  3.807603  -149.893719  71.449147  -97.083038  -33.557991  -26.109306  78.343418  78.568816  -13.996982  -20.341668  11.322192  -10.579801  18.947116  109.478542  38.651184  45.760832  -44.015785  15.723832  -96.027558  70.060143  8.417801  31.989358  6.054516  -1.196706  -3.862083  4.533375  -0.935944  -2.884936  
0.0  101.685394  0.0  0.702841  -9.914513  -103.304541  5.900131  -26.070856  -15.399655  4.723451  19.147698  45.837569  -5.626762  1.5369  1.48451  -5.898814  22.630475  20.935659  -9.267668  1.671115  6.089216  -5.687715  0.471408  -4.601113  -0.463808  0.275209  2.560981  -1.237074  0.800331  6.994925  -1.237074  0.800331  6.994925  -10.634197  20.738725  3.765649  -149.949772  71.394871  -96.983146  -33.344407  -26.050885  78.650082  78.595102  -13.1059  -20.558938  11.266593  -10.526399  19.134344  109.536604  39.488973  46.020832  -44.438203  16.11811  -95.984307  69.829827  7.547718  32.165144  5.964744  -1.154879  -4.078218  4.465936  -0.906113  -3.047632  
0.0  101.685394  0.0  0.869886  -9.555832  -103.201827  5.36426  -25.755816  -16.041956  4.189432  19.717707  46.404614  -5.428557  1.638991  1.3586  -6.413501  22.462774  20.762664  -9.284435  1.90776  5.964674  -5.702088  0.59168  -4.63722  -0.509397  0.274795  2.546843  -1.361757  0.80373  6.955711  -1.361757  0.80373  6.955712  -10.408951  20.80472  3.882138  -149.879096  71.191756  -97.040207  -33.126359  -25.856405  79.211719  78.630765  -11.981899  -20.716242  11.313441  -10.406915  19.400209  109.629924  40.330226  46.317288  -44.850847  16.553374  -95.958081  69.648113  6.574443  32.2779  6.017183  -1.093935  -4.209873  4.505469  -0.862049  -3.146899  
0.0  101.685394  0.0  0.882514  -8.921878  -102.9129  4.757728  -25.418441  -16.821494  3.590854  20.189648  47.038571  -5.509008  1.651741  1.103947  -6.457708  22.211223  20.716924  -9.61482  2.072037  5.891706  -5.888491  0.60881  -4.642107  -0.558094  0.260859  2.527694  -1.496397  0.770379  6.903042  -1.496397  0.770379  6.903042  -10.394912  20.801969  3.90353  -149.91456  71.029324  -96.838499  -32.790171  -25.895848  79.634346  78.729854  -10.581426  -20.778762  11.263091  -10.367065  19.534261  109.658267  41.256959  46.635114  -45.339587  16.981762  -95.939842  69.557467  5.491488  32.284615  5.913731  -1.0579  -4.426004  4.427786  -0.836399  -3.309538  
0.0  101.685394  0.0  1.127769  -8.871687  -102.991275  4.609041  -24.978248  -17.198071  2.980412  20.584471  47.690782  -5.899025  1.64795  0.768202  -5.990631  22.07388  20.945802  -9.923001  2.304129  5.82164  -6.013765  0.629976  -4.669666  -0.545731  0.262684  2.548236  -1.462202  0.774519  6.959303  -1.462202  0.774519  6.959303  -10.214372  20.815609  3.942784  -149.37513  70.756904  -96.99653  -32.714237  -25.36457  80.867945  78.857261  -8.876871  -20.724275  11.345127  -10.290577  19.686733  109.733237  42.249348  47.040531  -45.778518  17.335642  -95.964352  69.573111  4.225087  32.102881  5.95111  -0.998663  -4.615664  4.455979  -0.794087  -3.452324  
0.0  101.685394  0.0  1.18781  -8.253652  -102.814399  3.800357  -24.483806  -17.761008  2.473576  20.762882  48.317276  -6.664911  1.701006  0.336866  -6.033893  22.020563  21.006847  -10.142774  2.456836  5.782998  -6.186495  0.626712  -4.693431  -0.58484  0.250425  2.550309  -1.570233  0.745214  6.964761  -1.570233  0.745214  6.964761  -10.193547  20.772016  3.900111  -149.556087  70.573022  -96.901183  -32.423346  -25.527075  81.610628  79.04723  -6.837118  -20.545493  11.340129  -10.241648  19.751174  109.683418  43.427681  47.420555  -46.247207  17.648602  -96.017352  69.616429  2.696585  31.669908  5.828825  -0.960646  -4.88701  4.364166  -0.767237  -3.656404  
